<svg width="20" height="20" viewBox="0 0 20 20" fill="none" xmlns="http://www.w3.org/2000/svg">
<g clip-path="url(#clip0_407_194)">
<path d="M9.99935 18.3334C5.39685 18.3334 1.66602 14.6026 1.66602 10.0001C1.66602 5.39758 5.39685 1.66675 9.99935 1.66675C14.6018 1.66675 18.3327 5.39758 18.3327 10.0001C18.3327 14.6026 14.6018 18.3334 9.99935 18.3334ZM9.99935 16.6667C11.7675 16.6667 13.4632 15.9644 14.7134 14.7141C15.9636 13.4639 16.666 11.7682 16.666 10.0001C16.666 8.23197 15.9636 6.53628 14.7134 5.28604C13.4632 4.03579 11.7675 3.33341 9.99935 3.33341C8.23124 3.33341 6.53555 4.03579 5.2853 5.28604C4.03506 6.53628 3.33268 8.23197 3.33268 10.0001C3.33268 11.7682 4.03506 13.4639 5.2853 14.7141C6.53555 15.9644 8.23124 16.6667 9.99935 16.6667ZM9.16602 5.83341H10.8327V7.50008H9.16602V5.83341ZM9.16602 9.16675H10.8327V14.1667H9.16602V9.16675Z" fill="#746FF2"/>
</g>
<defs>
<clipPath id="clip0_407_194">
<rect width="20" height="20" fill="white"/>
</clipPath>
</defs>
</svg>
